<?xml version="1.0" encoding="UTF-8"?>
<svg width="76px" height="76px" viewBox="0 0 76 76" version="1.1" xmlns="http://www.w3.org/2000/svg" xmlns:xlink="http://www.w3.org/1999/xlink">
    <!-- Generator: Sketch 51.1 (57501) - http://www.bohemiancoding.com/sketch -->
    <title>FAB</title>
    <desc>Created with Sketch.</desc>
    <defs>
        <path d="M28,56 C43.463973,56 56,43.463973 56,28 C56,12.536027 43.463973,0 28,0 C12.536027,0 0,12.536027 0,28 C0,43.463973 12.536027,56 28,56 Z" id="path-1"></path>
        <filter x="-33.9%" y="-19.6%" width="167.9%" height="167.9%" filterUnits="objectBoundingBox" id="filter-2">
            <feOffset dx="0" dy="8" in="SourceAlpha" result="shadowOffsetOuter1"></feOffset>
            <feGaussianBlur stdDeviation="5" in="shadowOffsetOuter1" result="shadowBlurOuter1"></feGaussianBlur>
            <feColorMatrix values="0 0 0 0 0   0 0 0 0 0   0 0 0 0 0  0 0 0 0.292261096 0" type="matrix" in="shadowBlurOuter1"></feColorMatrix>
        </filter>
    </defs>
    <g id="A_Global-Navigations" stroke="none" stroke-width="1" fill="none" fill-rule="evenodd">
        <g id="a01_Dashboard_Main" transform="translate(-1159.000000, -754.000000)">
            <g id="FAB" transform="translate(1169.000000, 756.000000)">
                <g id="Contacts">
                    <g id="Group-2">
                        <g id="Oval-4">
                            <use fill="black" fill-opacity="1" filter="url(#filter-2)" xlink:href="#path-1"></use>
                            <use fill="#0097FB" fill-rule="evenodd" xlink:href="#path-1"></use>
                        </g>
                    </g>
                </g>
                <path d="M29,27 L36,27 L36,29 L29,29 L29,36 L27,36 L27,29 L20,29 L20,27 L27,27 L27,20 L29,20 L29,27 Z" id="Rectangle-39" fill="#FFFFFF"></path>
            </g>
        </g>
    </g>
</svg>