<?xml version="1.0" encoding="UTF-8"?>
<svg width="21px" height="21px" viewBox="0 0 21 21" version="1.1" xmlns="http://www.w3.org/2000/svg" xmlns:xlink="http://www.w3.org/1999/xlink">
    <!-- Generator: Sketch 51.1 (57501) - http://www.bohemiancoding.com/sketch -->
    <title>Group 8</title>
    <desc>Created with Sketch.</desc>
    <defs></defs>
    <g id="Symbols" stroke="none" stroke-width="1" fill="none" fill-rule="evenodd">
        <g id="Left-Nav" transform="translate(-40.000000, -683.000000)">
            <g id="Group-9">
                <g transform="translate(29.000000, 683.000000)">
                    <g id="Group-8" transform="translate(11.000000, 0.000000)">
                        <path d="M10.5,15.1666667 C7.92680105,15.1666667 5.83333333,13.073199 5.83333333,10.5 C5.83333333,7.92680105 7.92680105,5.83333333 10.5,5.83333333 C13.073199,5.83333333 15.1666667,7.92680105 15.1666667,10.5 C15.1666667,13.073199 13.073199,15.1666667 10.5,15.1666667 L10.5,15.1666667 Z M10.5,6.80533781 C8.46297126,6.80533781 6.80533781,8.46297126 6.80533781,10.5 C6.80533781,12.5370287 8.46297126,14.1946622 10.5,14.1946622 C12.5370287,14.1946622 14.1946622,12.5370287 14.1946622,10.5 C14.1946622,8.46297126 12.5370287,6.80533781 10.5,6.80533781 L10.5,6.80533781 Z" id="Fill-45"></path>
                        <path d="M11.9809826,21 L9.01901743,21 L8.16426307,18.437401 C7.59904913,18.2715531 7.05435816,18.0458003 6.53795563,17.7640254 L4.12290016,18.9715531 L2.02789223,16.8770998 L3.23597464,14.4614897 C2.95419968,13.9461965 2.72900158,13.4015055 2.56259905,12.8351823 L0,11.9809826 L0,9.01901743 L2.56259905,8.16481775 C2.72900158,7.59849445 2.95419968,7.05380349 3.23597464,6.5385103 L2.02789223,4.12290016 L4.12290016,2.02789223 L6.53795563,3.23597464 C7.05435816,2.95419968 7.59904913,2.72844691 8.16426307,2.56259905 L9.01901743,0 L11.9809826,0 L12.8357369,2.56259905 C13.4003962,2.72844691 13.9456418,2.95419968 14.4620444,3.23597464 L16.8770998,2.02789223 L18.9721078,4.12290016 L17.7640254,6.5385103 C18.0458003,7.05380349 18.2709984,7.59849445 18.437401,8.16481775 L21,9.01901743 L21,11.9809826 L18.437401,12.8351823 C18.2709984,13.4015055 18.0458003,13.9461965 17.7640254,14.4614897 L18.9721078,16.8770998 L16.8770998,18.9715531 L14.4620444,17.7640254 C13.9456418,18.0458003 13.4003962,18.2715531 12.8357369,18.437401 L11.9809826,21 L11.9809826,21 Z M9.76228209,19.9683043 L11.2377179,19.9683043 L12.033122,17.5832013 L12.3049128,17.5133122 C12.9655309,17.3435816 13.5978605,17.0823296 14.1835975,16.7356577 L14.4254358,16.5925515 L16.6735341,17.716878 L17.716878,16.6735341 L16.5919968,14.4254358 L16.7356577,14.1830428 C17.0812203,13.5989699 17.3430269,12.9671949 17.5138669,12.3043582 L17.5832013,12.0325674 L19.9683043,11.2377179 L19.9683043,9.76228209 L17.5832013,8.96743265 L17.5138669,8.69564184 C17.3430269,8.03280507 17.0812203,7.40103011 16.7356577,6.81695721 L16.5919968,6.57456418 L17.716878,4.32646593 L16.6735341,3.28312203 L14.4254358,4.40744849 L14.1835975,4.26434231 C13.5978605,3.91767036 12.9655309,3.65641838 12.3049128,3.4866878 L12.033122,3.41679873 L11.2377179,1.03169572 L9.76228209,1.03169572 L8.96687797,3.41679873 L8.69508716,3.4866878 C8.0344691,3.65641838 7.40213946,3.91767036 6.81640254,4.26434231 L6.57456418,4.40744849 L4.32646593,3.28312203 L3.28312203,4.32646593 L4.40800317,6.57456418 L4.26434231,6.81695721 C3.91877971,7.40103011 3.65697306,8.03280507 3.48613312,8.69564184 L3.41624406,8.96743265 L1.03169572,9.76228209 L1.03169572,11.2377179 L3.41624406,12.0325674 L3.48613312,12.3043582 C3.65697306,12.9671949 3.91877971,13.5989699 4.26434231,14.1830428 L4.40800317,14.4254358 L3.28312203,16.6735341 L4.32646593,17.716878 L6.57456418,16.5925515 L6.81640254,16.7356577 C7.40213946,17.0823296 8.0344691,17.3435816 8.69508716,17.5133122 L8.96687797,17.5832013 L9.76228209,19.9683043 L9.76228209,19.9683043 Z" id="Fill-46"></path>
                    </g>
                </g>
            </g>
        </g>
    </g>
</svg>