<?xml version="1.0" encoding="UTF-8"?>
<svg width="23px" height="21px" viewBox="0 0 23 21" version="1.1" xmlns="http://www.w3.org/2000/svg" xmlns:xlink="http://www.w3.org/1999/xlink">
    <!-- Generator: Sketch 51.1 (57501) - http://www.bohemiancoding.com/sketch -->
    <title>Notification</title>
    <desc>Created with Sketch.</desc>
    <defs></defs>
    <g id="Symbols" stroke="none" stroke-width="1" fill="none" fill-rule="evenodd">
        <g id="Dashboard/Sub-Header_Dashboard" transform="translate(-1143.000000, -17.000000)">
            <g id="Notification" transform="translate(1143.000000, 17.000000)">
                <path d="M16.96275,10.5413437 C16.3767188,6.42271875 15.8228438,2.533125 11.15625,2.533125 C6.48965625,2.533125 5.93578125,6.42271875 5.34975,10.5413437 C4.8076875,14.3475937 4.24790625,18.283125 0,18.283125 L0,17.0625 C2.974125,17.0625 3.54834375,14.5339687 4.14159375,10.3694062 C4.7158125,6.334125 5.43046875,1.3125 11.15625,1.3125 C16.8820312,1.3125 17.5966875,6.334125 18.1709062,10.3694062 C18.7641563,14.5339687 19.338375,17.0625 22.3125,17.0625 L22.3125,18.283125 C21.1049056,18.283125 20.1953673,17.9650748 19.4995608,17.4223598 C17.7477566,16.055988 17.350715,13.2655534 16.96275,10.5413437 Z" id="Fill-114" fill="#AFAFAF"></path>
                <path d="M7.875,17.71875 L9.095625,17.71875 C9.095625,18.8297812 9.99928125,19.7334375 11.1103125,19.7334375 C12.2213438,19.7334375 13.125,18.8297812 13.125,17.71875 L14.345625,17.71875 C14.345625,19.5024375 12.894,20.9540625 11.1103125,20.9540625 C9.326625,20.9540625 7.875,19.5024375 7.875,17.71875 Z" id="Fill-115" fill="#AFAFAF"></path>
                <polygon id="Fill-116" fill="#AFAFAF" points="0 17.0625 22.3125 17.0625 22.3125 18.375 0 18.375"></polygon>
                <path d="M11.15625,2.296875 C10.4310938,2.296875 9.84375,2.03765625 9.84375,1.3125 C9.84375,0.58734375 10.4310938,0 11.15625,0 C11.8814063,0 12.46875,0.58734375 12.46875,1.3125 C12.46875,2.03765625 11.8814063,2.296875 11.15625,2.296875 Z" id="Fill-117" fill="#AFAFAF"></path>
                <circle id="Oval" fill="#FF4357" cx="16.3333333" cy="5.83333333" r="2.33333333"></circle>
            </g>
        </g>
    </g>
</svg>