<?xml version="1.0" encoding="UTF-8"?>
<svg width="19px" height="25px" viewBox="0 0 19 25" version="1.1" xmlns="http://www.w3.org/2000/svg" xmlns:xlink="http://www.w3.org/1999/xlink">
    <!-- Generator: Sketch 51.1 (57501) - http://www.bohemiancoding.com/sketch -->
    <title>Group 7</title>
    <desc>Created with Sketch.</desc>
    <defs></defs>
    <g id="Symbols" stroke="none" stroke-width="1" fill="none" fill-rule="evenodd">
        <g id="Left-Nav" transform="translate(-40.000000, -445.000000)">
            <g id="Group-8">
                <g transform="translate(10.000000, 445.000000)">
                    <g id="Group-7" transform="translate(31.000000, 0.000000)">
                        <path d="M4.96551724,19.6387799 L1.3383611,19.6387799 C0.786076347,19.6387799 0.338361097,19.1910646 0.338361097,18.6387799 L0.338361097,15.9756987 C0.338361097,15.7115224 0.442895387,15.4580789 0.629134545,15.2707181 L5.11421942,10.7586207" id="Path-15"></path>
                        <path d="M17.3793103,19.3145828 L13.7521542,19.3145828 C13.1998695,19.3145828 12.7521542,18.8668676 12.7521542,18.3145828 L12.7521542,15.6467788 C12.7521542,15.3854025 12.8544902,15.1344147 13.0372505,14.9475558 L17.1343057,10.7586207" id="Path-15-Copy" transform="translate(15.065732, 15.036602) scale(-1, 1) translate(-15.065732, -15.036602) "></path>
                        <path d="M9.44180937,20.8684371 L9.44180937,14.0689655" id="Path-17"></path>
                        <path d="M2.82111972,21.5172414 L2.82111972,23.2760932" id="Path-18"></path>
                        <path d="M16.062499,21.5172414 L16.062499,23.2760932" id="Path-18-Copy"></path>
                        <polyline id="Path-19" points="6.95905075 20.6896552 6.95905075 23.5428834 11.8778361 23.5428834 11.8778361 20.6896552"></polyline>
                        <path d="M10.7586207,7.44827586 C10.7586207,6.53414938 10.0175748,5.79310345 9.10344828,5.79310345 C8.18932179,5.79310345 7.44827586,6.53414938 7.44827586,7.44827586" id="Oval-3"></path>
                        <path d="M5.30387834,19.7854661 L5.30387834,4.78930557 L8.59092799,0.921376154 C8.94857073,0.500531626 9.57965935,0.449296451 10.0005039,0.806939188 C10.0484905,0.847719283 10.0925178,0.892941058 10.131999,0.942001937 L13.2280744,4.78930557 L13.2280744,19.7890525 L12.0002358,20.6990253 L6.61912094,20.6990253 L5.30387834,19.7854661 Z" id="Path-16"></path>
                    </g>
                </g>
            </g>
        </g>
    </g>
</svg>