<?xml version="1.0" encoding="UTF-8"?>
<svg width="12px" height="12px" viewBox="0 0 12 12" version="1.1" xmlns="http://www.w3.org/2000/svg" xmlns:xlink="http://www.w3.org/1999/xlink">
    <!-- Generator: Sketch 51.1 (57501) - http://www.bohemiancoding.com/sketch -->
    <title>ic_search copy</title>
    <desc>Created with Sketch.</desc>
    <defs></defs>
    <g id="Symbols" stroke="none" stroke-width="1" fill="none" fill-rule="evenodd">
        <g id="Dashboard/Sub-Header_Dashboard" transform="translate(-1089.000000, -21.000000)" fill="#0097FB">
            <g id="ic_search-copy" transform="translate(1089.000000, 21.000000)">
                <g id="Icon-24px">
                    <path d="M8.15755208,7.33333333 L7.64199479,7.33333333 L7.45926563,7.15333333 C8.09881771,6.39333333 8.48385417,5.40666667 8.48385417,4.33333333 C8.48385417,1.94 6.58477604,0 4.24192708,0 C1.89907813,0 0,1.94 0,4.33333333 C0,6.72666667 1.89907813,8.66666667 4.24192708,8.66666667 C5.29261979,8.66666667 6.25847396,8.27333333 7.00244271,7.62 L7.17864583,7.80666667 L7.17864583,8.33333333 L10.4416667,11.66 L11.4140469,10.6666667 L8.15755208,7.33333333 L8.15755208,7.33333333 Z M4.24192708,7.33333333 C2.61694271,7.33333333 1.30520833,5.99333333 1.30520833,4.33333333 C1.30520833,2.67333333 2.61694271,1.33333333 4.24192708,1.33333333 C5.86691146,1.33333333 7.17864583,2.67333333 7.17864583,4.33333333 C7.17864583,5.99333333 5.86691146,7.33333333 4.24192708,7.33333333 L4.24192708,7.33333333 Z" id="Shape"></path>
                </g>
            </g>
        </g>
    </g>
</svg>