<?xml version="1.0" encoding="UTF-8"?>
<svg width="36px" height="36px" viewBox="0 0 36 36" version="1.1" xmlns="http://www.w3.org/2000/svg" xmlns:xlink="http://www.w3.org/1999/xlink">
    <!-- Generator: Sketch 51.1 (57501) - http://www.bohemiancoding.com/sketch -->
    <title>Search</title>
    <desc>Created with Sketch.</desc>
    <defs></defs>
    <g id="Symbols" stroke="none" stroke-width="1" fill="none" fill-rule="evenodd">
        <g id="Dashboard/Sub-Header_Dashboard" transform="translate(-1077.000000, -9.000000)" fill="#0097FB">
            <g id="Search" transform="translate(1077.000000, 9.000000)">
                <path d="M17.6203125,8.8839526e-16 L17.6203125,0 C27.3517424,-1.78763254e-15 35.240625,7.88888262 35.240625,17.6203125 L35.240625,18.3796875 C35.240625,28.1111174 27.3517424,36 17.6203125,36 L17.6203125,36 C7.88888262,36 9.06609857e-15,28.1111174 3.55271368e-15,18.3796875 L0,17.6203125 C-1.19175503e-15,7.88888262 7.88888262,1.78763254e-15 17.6203125,0 Z" id="Rectangle-3-Copy" opacity="0.09375"></path>
                <path d="M20.1575521,19.3333333 L19.6419948,19.3333333 L19.4592656,19.1533333 C20.0988177,18.3933333 20.4838542,17.4066667 20.4838542,16.3333333 C20.4838542,13.94 18.584776,12 16.2419271,12 C13.8990781,12 12,13.94 12,16.3333333 C12,18.7266667 13.8990781,20.6666667 16.2419271,20.6666667 C17.2926198,20.6666667 18.258474,20.2733333 19.0024427,19.62 L19.1786458,19.8066667 L19.1786458,20.3333333 L22.4416667,23.66 L23.4140469,22.6666667 L20.1575521,19.3333333 L20.1575521,19.3333333 Z M16.2419271,19.3333333 C14.6169427,19.3333333 13.3052083,17.9933333 13.3052083,16.3333333 C13.3052083,14.6733333 14.6169427,13.3333333 16.2419271,13.3333333 C17.8669115,13.3333333 19.1786458,14.6733333 19.1786458,16.3333333 C19.1786458,17.9933333 17.8669115,19.3333333 16.2419271,19.3333333 L16.2419271,19.3333333 Z" id="Shape"></path>
            </g>
        </g>
    </g>
</svg>