<?xml version="1.0" encoding="UTF-8"?>
<svg width="15px" height="26px" viewBox="0 0 15 26" version="1.1" xmlns="http://www.w3.org/2000/svg" xmlns:xlink="http://www.w3.org/1999/xlink">
    <!-- Generator: Sketch 51.1 (57501) - http://www.bohemiancoding.com/sketch -->
    <title>Group 6</title>
    <desc>Created with Sketch.</desc>
    <defs></defs>
    <g id="Symbols" stroke="none" stroke-width="1" fill="none" fill-rule="evenodd">
        <g id="Left-Nav" transform="translate(-42.000000, -354.000000)">
            <g id="Group-7">
                <g transform="translate(30.000000, 354.000000)">
                    <g id="Group-6" transform="translate(13.000000, 0.000000)">
                        <g id="Group-4" transform="translate(0.685714, 5.485714)">
                            <path d="M10.7032297,9.99535677 C10.2233037,10.5689549 9.8727395,11.2393178 9.67544943,11.9607194 L8.96336152,14.4648952 C8.69850645,15.3826268 8.02625158,16.1275342 7.14041647,16.4848513 C6.45505412,16.7607567 5.68951507,16.7607567 5.00415273,16.4848513 C4.11831761,16.1275342 3.44606275,15.3826268 3.18120767,14.4648952 L2.46911976,11.9607194 C2.27081263,11.2385248 1.91948214,10.567435 1.43896592,9.99298315 C-0.687073378,7.48474029 -0.428121166,3.73940708 2.022878,1.54762051 C3.12890406,0.548273318 4.56741327,-0.00343727441 6.05804284,1.61145511e-05 C6.29117751,-8.83575818e-05 6.52414255,0.0125900121 6.75588899,0.0379941365 C8.98345032,0.289506101 10.8909967,1.74839325 11.7171212,3.83233328 C12.5432457,5.91627331 12.1534141,8.28589697 10.7032297,9.99535677 Z" id="Path"></path>
                            <path d="M2.81419031,19.0521978 L10.3470405,19.0521978" id="Path-2"></path>
                        </g>
                        <g id="Group-5">
                            <path d="M0,1.37142857 L2.74285714,4.11428571" id="Path-14" transform="translate(1.371429, 2.742857) scale(-1, -1) translate(-1.371429, -2.742857) "></path>
                            <path d="M13.0285714,1.37142857 L10.9714286,4.11428571" id="Path-12" transform="translate(12.000000, 2.742857) scale(-1, -1) translate(-12.000000, -2.742857) "></path>
                            <path d="M6.51428571,0 L6.51428571,3.42857143" id="Path-13" transform="translate(6.514286, 1.714286) scale(-1, -1) translate(-6.514286, -1.714286) "></path>
                        </g>
                    </g>
                </g>
            </g>
        </g>
    </g>
</svg>